<?xml version="1.0" encoding="utf-8"?>
<!-- Generator: Adobe Illustrator 24.0.1, SVG Export Plug-In . SVG Version: 6.00 Build 0)  -->
<svg version="1.1" id="Layer_1" xmlns="http://www.w3.org/2000/svg" xmlns:xlink="http://www.w3.org/1999/xlink" x="0px" y="0px"
	 viewBox="0 0 321 57" style="enable-background:new 0 0 321 57;" xml:space="preserve">
<style type="text/css">
	.st0{fill:#08B119;}
	.st1{fill:#FFFFFF;}
</style>
<g>
	<path class="st1" d="M29.28,18.38c2.29,1.21,4.08,3.03,5.38,5.45c1.3,2.42,1.96,5.37,1.96,8.85v22.16h-6.17V33.58
		c0-3.75-0.94-6.62-2.81-8.61c-1.88-1.99-4.44-2.98-7.68-2.98c-3.29,0-5.91,1.03-7.85,3.09c-1.94,2.06-2.92,5.05-2.92,8.99v20.79
		H2.94V4.08h6.24V22.6c1.23-1.92,2.94-3.41,5.11-4.46c2.17-1.05,4.61-1.58,7.31-1.58C24.44,16.57,27,17.17,29.28,18.38z"/>
	<path class="st1" d="M96.92,17.25L85.19,54.84h-6.45L69.69,25l-9.06,29.84h-6.45l-11.8-37.59h6.38l8.64,31.56l9.33-31.56h6.38
		l9.12,31.63l8.51-31.63H96.92z"/>
	<path class="st1" d="M103.1,25.79c1.55-2.9,3.69-5.16,6.41-6.76c2.72-1.6,5.75-2.4,9.09-2.4c3.29,0,6.15,0.71,8.58,2.13
		c2.42,1.42,4.23,3.2,5.42,5.35v-6.86h6.31v37.59h-6.31v-7c-1.23,2.2-3.08,4.01-5.52,5.45c-2.45,1.44-5.29,2.16-8.54,2.16
		c-3.34,0-6.36-0.82-9.06-2.47c-2.7-1.65-4.83-3.96-6.38-6.93c-1.56-2.97-2.33-6.36-2.33-10.15
		C100.76,32.07,101.54,28.7,103.1,25.79z M130.88,28.57c-1.14-2.1-2.69-3.71-4.63-4.84c-1.94-1.12-4.08-1.68-6.41-1.68
		s-4.46,0.55-6.38,1.65s-3.45,2.7-4.6,4.8c-1.14,2.1-1.71,4.57-1.71,7.41c0,2.88,0.57,5.38,1.71,7.51c1.14,2.13,2.68,3.75,4.6,4.87
		c1.92,1.12,4.05,1.68,6.38,1.68s4.47-0.56,6.41-1.68c1.94-1.12,3.49-2.74,4.63-4.87c1.14-2.13,1.71-4.61,1.71-7.44
		C132.59,33.14,132.02,30.67,130.88,28.57z"/>
	<path class="st1" d="M149.47,25.79c1.55-2.9,3.69-5.16,6.41-6.76c2.72-1.6,5.77-2.4,9.16-2.4c2.93,0,5.65,0.67,8.16,2.02
		c2.51,1.35,4.44,3.12,5.76,5.32V4.08h6.31v50.76h-6.31v-7.07c-1.23,2.24-3.06,4.08-5.49,5.52c-2.42,1.44-5.26,2.16-8.51,2.16
		c-3.34,0-6.37-0.82-9.09-2.47c-2.72-1.65-4.86-3.96-6.41-6.93c-1.56-2.97-2.33-6.36-2.33-10.15
		C147.14,32.07,147.92,28.7,149.47,25.79z M177.25,28.57c-1.14-2.1-2.69-3.71-4.63-4.84c-1.94-1.12-4.08-1.68-6.41-1.68
		s-4.46,0.55-6.38,1.65s-3.45,2.7-4.6,4.8c-1.14,2.1-1.71,4.57-1.71,7.41c0,2.88,0.57,5.38,1.71,7.51c1.14,2.13,2.68,3.75,4.6,4.87
		c1.92,1.12,4.05,1.68,6.38,1.68s4.47-0.56,6.41-1.68c1.94-1.12,3.49-2.74,4.63-4.87c1.14-2.13,1.71-4.61,1.71-7.44
		C178.97,33.14,178.4,30.67,177.25,28.57z"/>
	<path class="st1" d="M196.05,9.91c-0.82-0.82-1.24-1.83-1.24-3.02c0-1.19,0.41-2.2,1.24-3.02s1.83-1.23,3.02-1.23
		c1.14,0,2.12,0.41,2.92,1.23c0.8,0.82,1.2,1.83,1.2,3.02c0,1.19-0.4,2.2-1.2,3.02c-0.8,0.82-1.77,1.23-2.92,1.23
		C197.88,11.15,196.87,10.73,196.05,9.91z M202.08,17.25v37.59h-6.24V17.25H202.08z"/>
</g>
<g>
	<path class="st0" d="M247.32,19.1c-1.17-2.15-2.78-3.78-4.83-4.9c-2.05-1.12-4.44-1.68-7.17-1.68c-3.03,0-5.71,0.68-8.05,2.05
		c-2.34,1.37-4.17,3.32-5.49,5.85c-1.32,2.54-1.98,5.47-1.98,8.78c0,3.41,0.67,6.39,2.01,8.93c1.34,2.54,3.21,4.49,5.6,5.85
		c2.39,1.37,5.17,2.05,8.34,2.05c3.9,0,7.1-1.04,9.59-3.11c2.49-2.07,4.12-4.96,4.9-8.67h-17.56v-7.83h27.66v8.93
		c-0.68,3.56-2.15,6.85-4.39,9.88c-2.25,3.03-5.14,5.45-8.67,7.28c-3.54,1.83-7.5,2.74-11.89,2.74c-4.93,0-9.38-1.11-13.36-3.33
		c-3.98-2.22-7.1-5.31-9.37-9.26s-3.4-8.44-3.4-13.46c0-5.02,1.14-9.52,3.4-13.5s5.39-7.07,9.37-9.29c3.98-2.22,8.4-3.33,13.28-3.33
		c5.76,0,10.76,1.4,15,4.21c4.25,2.81,7.17,6.75,8.78,11.82H247.32z"/>
	<path class="st0" d="M278.5,51.96c-4-2.24-7.17-5.35-9.51-9.33c-2.34-3.98-3.51-8.48-3.51-13.5c0-4.98,1.17-9.45,3.51-13.43
		c2.34-3.98,5.51-7.09,9.51-9.33c4-2.24,8.39-3.37,13.17-3.37c4.83,0,9.23,1.12,13.21,3.37c3.98,2.25,7.12,5.35,9.44,9.33
		c2.32,3.98,3.48,8.45,3.48,13.43c0,5.03-1.16,9.53-3.48,13.5c-2.32,3.98-5.48,7.09-9.48,9.33c-4,2.25-8.39,3.37-13.17,3.37
		C286.89,55.32,282.5,54.2,278.5,51.96z M299.79,44.09c2.34-1.39,4.17-3.38,5.49-5.96c1.32-2.59,1.98-5.59,1.98-9
		s-0.66-6.4-1.98-8.96c-1.32-2.56-3.15-4.53-5.49-5.89c-2.34-1.37-5.05-2.05-8.12-2.05c-3.07,0-5.79,0.68-8.16,2.05
		c-2.37,1.37-4.21,3.33-5.53,5.89c-1.32,2.56-1.98,5.55-1.98,8.96s0.66,6.42,1.98,9c1.32,2.59,3.16,4.57,5.53,5.96
		c2.37,1.39,5.09,2.09,8.16,2.09C294.74,46.18,297.45,45.48,299.79,44.09z"/>
</g>
<g>
	<polygon class="st1" points="293.46,21 283.56,21 292.56,30 283.56,39 293.46,39 302.46,30 	"/>
</g>
</svg>
